#!OML:ASF F:\twosubjects\two\Thursday\Session 1\justin.ASF
:FULLY-SPECIFIED
:DEGREES
440
root 25.3452 16.1194 -10.5241 11.139 -49.2922 1.70235
lowerback 32.189 3.37223 -3.97463
upperback 7.81525 2.84765 2.81879
thorax -8.30062 1.17962 4.10771
lowerneck -9.35009 -11.2872 -15.838
upperneck -23.7334 -12.4372 20.2415
head -3.00888 -6.44653 8.86426
rclavicle -3.4191e-014 3.49861e-014
rhumerus -17.1697 -9.42971 -75.8673
rradius 52.8587
rwrist -10.1945
rhand -18.5847 14.7214
rfingers 7.12502
rthumb 7.706 -15.1182
lclavicle -3.4191e-014 3.49861e-014
lhumerus -26.8774 -8.34418 92.1802
lradius 67.7196
lwrist -18.5334
lhand -11.5814 35.7556
lfingers 7.12502
lthumb 14.4603 65.2318
rfemur -54.0227 -17.0567 16.2931
rtibia 68.9948
rfoot -22.9697 14.9309
rtoes -22.3429
lfemur -41.6034 16.1334 -11.6158
ltibia 75.6708
lfoot -14.865 -15.7031
ltoes -25.793
441
root 25.3969 16.1081 -10.5953 11.8851 -49.6668 1.38661
lowerback 31.5446 3.48584 -3.42731
upperback 8.09561 3.18844 2.52505
thorax -8.39679 1.36438 3.67544
lowerneck -9.04725 -11.2997 -15.0391
upperneck -24.0533 -12.5491 19.9448
head -3.21685 -6.56532 8.67188
rclavicle 4.77083e-014 -6.2816e-014
rhumerus -17.2744 -10.5611 -75.8008
rradius 53.3137
rwrist -9.59575
rhand -19.4884 14.7631
rfingers 7.12502
rthumb 6.83369 -15.1066
lclavicle 4.77083e-014 -6.2816e-014
lhumerus -27.0347 -9.98357 92.12
lradius 67.5303
lwrist -18.018
lhand -10.5898 35.3369
lfingers 7.12502
lthumb 15.4156 64.7421
rfemur -55.3955 -17.6029 16.3104
rtibia 69.5953
rfoot -22.6243 16.842
rtoes -29.1118
lfemur -40.6846 15.4462 -11.7166
ltibia 73.7954
lfoot -19.1797 -12.8675
ltoes -28.5005
442
root 25.4546 16.0762 -10.711 12.6555 -49.3458 1.10899
lowerback 31.5727 3.06706 -2.69765
upperback 7.8758 2.87335 2.27161
thorax -8.58883 1.21862 3.08021
lowerneck -9.33046 -11.35 -14.5522
upperneck -23.9204 -12.6026 20.0792
head -3.14048 -6.63047 8.60434
rclavicle -5.80451e-014 2.62396e-014
rhumerus -17.2425 -10.844 -76.322
rradius 54.0982
rwrist -9.22507
rhand -19.6706 14.0189
rfingers 7.12502
rthumb 6.65777 -15.8564
lclavicle -5.80451e-014 2.62396e-014
lhumerus -27.0583 -11.2204 91.4505
lradius 67.4406
lwrist -16.8139
lhand -10.1278 35.1465
lfingers 7.12502
lthumb 15.8606 64.5169
rfemur -56.805 -18.3557 16.4153
rtibia 70.2055
rfoot -22.2381 18.6966
rtoes -32.9583
lfemur -40.4017 14.3839 -11.4437
ltibia 71.8724
lfoot -21.1111 -11.6578
ltoes -27.5804
443
root 25.4711 16.077 -10.7234 12.126 -50.7788 0.987961
lowerback 31.8107 2.95801 -2.12752
upperback 8.16376 2.77998 1.42881
thorax -8.29441 1.14708 1.82894
lowerneck -9.59221 -11.0447 -13.8688
upperneck -23.7374 -12.1767 20.2852
head -3.13324 -6.47385 8.57146
rclavicle -4.92986e-014 5.88403e-014
rhumerus -16.9239 -11.0094 -77.5539
rradius 54.7247
rwrist -9.25202
rhand -19.1779 13.6918
rfingers 7.12502
rthumb 7.13342 -16.168
lclavicle -4.92986e-014 5.88403e-014
lhumerus -27.1022 -11.9906 90.1009
lradius 67.4563
lwrist -15.5314
lhand -9.0852 34.8507
lfingers 7.12502
lthumb 16.8644 64.1384
rfemur -56.3578 -17.7954 15.3473
rtibia 70.5995
rfoot -20.8671 19.7727
rtoes -30.3428
lfemur -38.0591 14.7429 -11.5416
ltibia 70.0133
lfoot -23.3965 -8.6034
ltoes -30.1277
444
root 25.4995 16.0457 -10.8074 11.7844 -50.9956 1.41161
lowerback 31.7926 2.89865 -2.69845
upperback 8.28023 2.53198 1.52459
thorax -8.16611 1.03189 2.36456
lowerneck -9.75377 -10.5271 -13.6966
upperneck -23.8053 -11.4994 19.932
head -3.28628 -6.12676 8.49008
rclavicle -8.8658e-014 2.34566e-014
rhumerus -16.2945 -10.6888 -77.6503
rradius 55.1761
rwrist -9.12218
rhand -19.0908 13.2382
rfingers 7.12502
rthumb 7.21754 -16.6187
lclavicle -8.8658e-014 2.34566e-014
lhumerus -26.9687 -11.6497 90.0537
lradius 67.2742
lwrist -15.4606
lhand -7.99186 34.4872
lfingers 7.12502
lthumb 17.9167 63.6819
rfemur -56.6449 -17.9112 14.2189
rtibia 71.2586
rfoot -20.8397 18.5524
rtoes -31.469
lfemur -37.5549 14.7024 -11.8852
ltibia 68.725
lfoot -24.8979 -6.36162
ltoes -33.3293
445
root 25.5172 16.0172 -10.9064 11.1667 -51.1434 1.95325
lowerback 32.4074 3.00623 -3.25307
upperback 7.96684 2.46092 1.68433
thorax -8.08877 0.982309 2.66064
lowerneck -9.90817 -10.3217 -13.7004
upperneck -23.8754 -11.1992 19.9145
head -3.33368 -5.97368 8.50848
rclavicle -4.8901e-014 4.65156e-014
rhumerus -15.8039 -10.7348 -77.626
rradius 55.6147
rwrist -8.79968
rhand -19.3713 12.7332
rfingers 7.12502
rthumb 6.94673 -17.1329
lclavicle -4.8901e-014 4.65156e-014
lhumerus -27.0302 -11.9262 90.0723
lradius 67.3132
lwrist -15.6777
lhand -7.74102 34.7323
lfingers 7.12502
lthumb 18.158 63.9047
rfemur -56.5504 -17.7423 12.7718
rtibia 71.9264
rfoot -21.2077 15.5855
rtoes -32.4669
lfemur -37.1319 14.8472 -12.1749
ltibia 67.8446
lfoot -25.7334 -5.66356
ltoes -33.4324
446
root 25.5275 15.9967 -11.0055 10.434 -51.1612 2.41124
lowerback 32.9881 3.23947 -3.6349
upperback 7.97972 2.60757 1.77409
thorax -8.32635 1.05029 2.89128
lowerneck -10.02 -10.4134 -13.3527
upperneck -23.8882 -11.3728 19.6122
head -3.34602 -6.06828 8.33517
rclavicle -3.77691e-014 -3.1408e-014
rhumerus -15.7423 -11.3094 -77.4075
rradius 56.1552
rwrist -8.86888
rhand -18.8835 13.0414
rfingers 7.12502
rthumb 7.41761 -16.8086
lclavicle -3.77691e-014 -3.1408e-014
lhumerus -27.176 -12.8802 90.1435
lradius 67.2864
lwrist -15.563
lhand -7.43593 35.1507
lfingers 7.12502
lthumb 18.4515 64.2956
rfemur -56.0119 -17.4125 11.0877
rtibia 72.5953
rfoot -21.1405 12.695
rtoes -30.2405
lfemur -36.6867 15.015 -12.3542
ltibia 67.4037
lfoot -26.6063 -4.70216
ltoes -33.7694
447
root 25.534 15.9722 -11.1002 9.97667 -51.0556 2.5421
lowerback 33.3597 3.41185 -3.83955
upperback 8.0727 2.75749 2.0286
thorax -8.40052 1.11381 3.20557
lowerneck -10.0518 -10.4718 -13.0464
upperneck -24.077 -11.5266 19.1121
head -3.44711 -6.14621 8.12592
rclavicle -7.67309e-014 1.09729e-013
rhumerus -15.8069 -11.8187 -77.063
rradius 56.8402
rwrist -8.80774
rhand -18.6943 13.6873
rfingers 7.12502
rthumb 7.60022 -16.1561
lclavicle -7.67309e-014 1.09729e-013
lhumerus -27.1404 -13.5391 90.2547
lradius 67.1528
lwrist -15.4789
lhand -6.92256 35.1595
lfingers 7.12502
lthumb 18.9453 64.2569
rfemur -55.291 -17.0139 9.48676
rtibia 73.133
rfoot -20.9945 10.1484
rtoes -28.266
lfemur -36.4065 15.2902 -12.3346
ltibia 67.1351
lfoot -27.389 -3.14121
ltoes -35.7047
448
root 25.5331 15.9464 -11.2023 9.53087 -50.8936 2.83096
lowerback 33.5351 3.48315 -4.22845
upperback 8.21796 2.72095 2.21814
thorax -8.33016 1.0902 3.62387
lowerneck -10.1801 -10.3285 -12.8721
upperneck -24.2089 -11.3719 18.7464
head -3.54045 -6.06243 7.99769
rclavicle -1.23246e-014 2.94201e-014
rhumerus -15.8552 -11.573 -76.9116
rradius 57.5544
rwrist -8.77262
rhand -19.5615 13.7958
rfingers 7.12502
rthumb 6.76316 -16.0762
lclavicle -1.23246e-014 2.94201e-014
lhumerus -26.9383 -13.6358 90.082
lradius 67.0721
lwrist -15.6992
lhand -6.40002 35.0022
lfingers 7.12502
lthumb 19.4478 64.0496
rfemur -54.5481 -16.4896 7.75702
rtibia 73.4327
rfoot -20.7461 7.58628
rtoes -26.8664
lfemur -36.361 15.5582 -12.2777
ltibia 67.0965
lfoot -27.5115 -3.94647
ltoes -32.7446
449
root 25.523 15.9233 -11.3092 9.20603 -50.7562 3.02056
lowerback 33.8006 3.62238 -4.67094
upperback 8.20795 2.75729 2.43983
thorax -8.47429 1.10973 4.07356
lowerneck -10.502 -10.2171 -12.4584
upperneck -23.8784 -11.3165 18.0774
head -3.49138 -6.0107 7.68513
rclavicle 1.24439e-013 -1.11717e-013
rhumerus -16.5812 -10.6584 -76.4454
rradius 58.5392
rwrist -9.4072
rhand -20.3934 13.3969
rfingers 7.12502
rthumb 5.96005 -16.4993
lclavicle 1.24439e-013 -1.11717e-013
lhumerus -26.9154 -13.4605 90.0484
lradius 66.8524
lwrist -16.0512
lhand -5.91784 34.8146
lfingers 7.12502
lthumb 19.9113 63.8145
rfemur -53.7278 -15.7231 6.04358
rtibia 73.5725
rfoot -20.2517 5.1916
rtoes -24.2631
lfemur -36.3776 16.0833 -12.1777
ltibia 67.0738
lfoot -27.8232 -4.04291
ltoes -30.915
450
root 25.5101 15.918 -11.412 9.52177 -50.5411 2.32975
lowerback 33.8824 3.76544 -4.75875
upperback 8.32599 2.96313 3.07019
thorax -8.44672 1.19423 4.71252
lowerneck -10.9906 -10.1566 -12.3527
upperneck -23.4954 -11.312 17.3138
head -3.38514 -5.95111 7.37972
rclavicle 5.80451e-014 -5.1684e-014
rhumerus -17.1736 -10.4354 -75.6578
rradius 59.7323
rwrist -9.67089
rhand -20.3727 13.0648
rfingers 7.12502
rthumb 5.98 -16.8308
lclavicle 5.80451e-014 -5.1684e-014
lhumerus -26.7015 -12.9148 90.5418
lradius 66.3344
lwrist -16.304
lhand -5.96957 34.7176
lfingers 7.12502
lthumb 19.8616 63.7227
rfemur -52.6848 -14.7305 4.95826
rtibia 73.5176
rfoot -19.4614 3.00862
rtoes -20.8547
lfemur -36.5207 16.6934 -11.4091
ltibia 67.0704
lfoot -27.9303 -4.51985
ltoes -29.5492
